<svg width="119" height="38" viewBox="0 0 119 38" fill="none" xmlns="http://www.w3.org/2000/svg">
<ellipse cx="54" cy="20.5" rx="17" ry="17.5" fill="#FDC1D5"/>
<path d="M2.04 28V10.48H7.32C9.896 10.48 11.776 10.896 12.96 11.728C14.16 12.56 14.76 13.88 14.76 15.688C14.76 17.464 14.184 18.792 13.032 19.672C11.896 20.552 10.16 20.992 7.824 20.992H3.36V18.688H7.44C9.072 18.688 10.248 18.464 10.968 18.016C11.704 17.552 12.072 16.808 12.072 15.784C12.072 14.76 11.704 14.024 10.968 13.576C10.248 13.112 9.072 12.88 7.44 12.88H4.68V28H2.04ZM12.288 28L4.344 19.984H7.68L15.72 28H12.288ZM22.1685 28.24C20.6645 28.24 19.5605 27.832 18.8565 27.016C18.1525 26.2 17.8005 24.928 17.8005 23.2V15.52H20.3925V22.72C20.3925 23.872 20.5845 24.72 20.9685 25.264C21.3685 25.808 22.0085 26.08 22.8885 26.08C23.5445 26.08 24.1205 25.944 24.6165 25.672C25.1285 25.4 25.5285 25.032 25.8165 24.568C26.1045 24.088 26.2485 23.552 26.2485 22.96V15.52H28.8405V28H26.3685L26.3445 26.512H26.2965C25.8005 27.088 25.2165 27.52 24.5445 27.808C23.8725 28.096 23.0805 28.24 22.1685 28.24ZM36.5837 28.24C36.0237 28.24 35.4397 28.2 34.8317 28.12C34.2397 28.056 33.6717 27.96 33.1277 27.832C32.5837 27.688 32.1037 27.528 31.6877 27.352L32.0477 25.24C32.7517 25.496 33.4637 25.704 34.1837 25.864C34.9037 26.008 35.6157 26.08 36.3197 26.08C37.2477 26.08 37.9357 25.952 38.3837 25.696C38.8477 25.424 39.0797 25.024 39.0797 24.496C39.0797 24.192 38.9997 23.944 38.8397 23.752C38.6797 23.544 38.3997 23.36 37.9997 23.2C37.5997 23.024 37.0477 22.856 36.3437 22.696C35.3837 22.456 34.5437 22.176 33.8237 21.856C33.1197 21.536 32.5757 21.128 32.1917 20.632C31.8077 20.136 31.6157 19.512 31.6157 18.76C31.6157 17.624 32.0477 16.76 32.9117 16.168C33.7917 15.576 35.0557 15.28 36.7037 15.28C37.4717 15.28 38.2557 15.344 39.0557 15.472C39.8717 15.6 40.6157 15.784 41.2877 16.024L40.9037 18.136C40.2637 17.896 39.6157 17.72 38.9597 17.608C38.3197 17.496 37.6717 17.44 37.0157 17.44C36.0717 17.44 35.3677 17.56 34.9037 17.8C34.4557 18.024 34.2317 18.368 34.2317 18.832C34.2317 19.104 34.3037 19.336 34.4477 19.528C34.6077 19.72 34.8797 19.896 35.2637 20.056C35.6477 20.216 36.1837 20.376 36.8717 20.536C37.5757 20.696 38.2157 20.888 38.7917 21.112C39.3837 21.336 39.8957 21.608 40.3277 21.928C40.7597 22.232 41.0957 22.6 41.3357 23.032C41.5757 23.464 41.6957 23.976 41.6957 24.568C41.6957 25.336 41.4877 25.992 41.0717 26.536C40.6717 27.08 40.0877 27.504 39.3197 27.808C38.5677 28.096 37.6557 28.24 36.5837 28.24ZM49.8836 28.24C48.4436 28.24 47.4036 27.944 46.7636 27.352C46.1396 26.744 45.8276 25.76 45.8276 24.4V17.68H42.9476V15.52H45.8276V11.44H48.4436V15.52H52.7876V17.68H48.4436V23.68C48.4436 24.528 48.5876 25.12 48.8756 25.456C49.1636 25.792 49.6756 25.96 50.4116 25.96C50.7796 25.96 51.1476 25.928 51.5156 25.864C51.8996 25.8 52.2436 25.712 52.5476 25.6L52.7876 27.808C52.2756 27.968 51.7796 28.08 51.2996 28.144C50.8356 28.208 50.3636 28.24 49.8836 28.24ZM58.6354 28.24C57.3874 28.24 56.4034 27.904 55.6834 27.232C54.9634 26.544 54.6034 25.616 54.6034 24.448C54.6034 22.992 55.1794 21.872 56.3314 21.088C57.4834 20.288 59.1234 19.888 61.2514 19.888H63.0514C63.0514 19.248 62.9714 18.752 62.8114 18.4C62.6514 18.048 62.3714 17.8 61.9714 17.656C61.5874 17.512 61.0514 17.44 60.3634 17.44C59.5474 17.44 58.7154 17.52 57.8674 17.68C57.0354 17.84 56.2434 18.08 55.4914 18.4L55.1314 16.264C55.9314 15.96 56.8114 15.72 57.7714 15.544C58.7474 15.368 59.7234 15.28 60.6994 15.28C61.9474 15.28 62.9234 15.432 63.6274 15.736C64.3474 16.04 64.8594 16.552 65.1634 17.272C65.4834 17.992 65.6434 18.944 65.6434 20.128V28H63.1714L63.1474 26.56H63.0994C62.6674 27.056 62.0274 27.464 61.1794 27.784C60.3474 28.088 59.4994 28.24 58.6354 28.24ZM59.5474 26.128C60.1874 26.128 60.7714 26.008 61.2994 25.768C61.8434 25.528 62.2674 25.208 62.5714 24.808C62.8914 24.408 63.0514 23.96 63.0514 23.464V21.856H61.6114C60.1394 21.856 59.0354 22.048 58.2994 22.432C57.5634 22.816 57.1954 23.4 57.1954 24.184C57.1954 24.792 57.3954 25.272 57.7954 25.624C58.2114 25.96 58.7954 26.128 59.5474 26.128ZM68.973 28V15.52H71.397L71.421 17.008H71.469C71.917 16.464 72.461 16.04 73.101 15.736C73.741 15.432 74.485 15.28 75.333 15.28C76.165 15.28 76.869 15.432 77.445 15.736C78.021 16.024 78.429 16.448 78.669 17.008H78.717C79.181 16.416 79.725 15.984 80.349 15.712C80.989 15.424 81.733 15.28 82.581 15.28C83.941 15.28 84.933 15.64 85.557 16.36C86.181 17.064 86.493 18.184 86.493 19.72V28H83.949V20.32C83.949 19.328 83.781 18.6 83.445 18.136C83.109 17.672 82.573 17.44 81.837 17.44C80.973 17.44 80.285 17.728 79.773 18.304C79.261 18.864 79.005 19.616 79.005 20.56V28H76.461V20.08C76.461 19.232 76.277 18.584 75.909 18.136C75.541 17.672 75.021 17.44 74.349 17.44C73.821 17.44 73.341 17.576 72.909 17.848C72.477 18.12 72.133 18.496 71.877 18.976C71.637 19.44 71.517 19.968 71.517 20.56V28H68.973ZM95.0229 28L101.407 10.48H104.983L111.343 28H108.439L103.207 12.736H103.159L97.9269 28H95.0229ZM98.3349 23.608V21.208H108.055V23.608H98.3349ZM113.912 28V10.48H116.648V28H113.912Z" fill="black"/>
</svg>
