<?xml version="1.0" standalone="no"?>
<!DOCTYPE svg PUBLIC "-//W3C//DTD SVG 20010904//EN"
 "http://www.w3.org/TR/2001/REC-SVG-20010904/DTD/svg10.dtd">
<svg version="1.0" xmlns="http://www.w3.org/2000/svg"
 width="560.000000pt" height="560.000000pt" viewBox="0 0 560.000000 560.000000"
 preserveAspectRatio="xMidYMid meet">

<g transform="translate(0.000000,560.000000) scale(0.100000,-0.100000)"
fill="#fc60cd" stroke="none">
<path d="M1332 4351 c-117 -40 -224 -146 -274 -269 l-23 -57 0 -1255 0 -1255
26 -55 c47 -101 145 -178 268 -212 62 -17 141 -18 1516 -18 1306 0 1457 2
1506 16 93 28 158 89 197 186 16 40 17 136 20 1294 2 1198 2 1253 -16 1311
-39 125 -133 230 -262 292 l-75 36 -1415 2 c-1349 2 -1417 2 -1468 -16z m2878
-201 c60 -30 109 -78 136 -131 l24 -49 -2 -878 -3 -878 -325 268 c-178 147
-327 268 -331 268 -3 0 -120 -97 -260 -215 l-254 -214 -21 22 c-12 12 -137
148 -279 302 -141 154 -262 281 -268 282 -10 2 -1109 -756 -1325 -914 l-72
-53 0 1010 c0 683 3 1018 11 1037 19 51 63 106 108 135 l45 28 1388 0 c1370 0
1389 0 1428 -20z m-1330 -1760 c133 -146 255 -278 269 -293 l27 -28 267 226
267 225 330 -272 330 -272 0 -223 c0 -240 -8 -288 -53 -312 -17 -9 -388 -11
-1488 -9 l-1466 3 -48 30 c-69 43 -85 79 -85 192 l0 91 358 250 c196 137 503
351 682 475 l325 226 21 -22 c12 -12 131 -141 264 -287z"/>
<path d="M3367 3820 c-110 -19 -208 -94 -259 -198 -30 -61 -33 -75 -33 -157 1
-78 4 -98 29 -149 37 -76 101 -140 174 -174 50 -24 70 -27 157 -27 95 0 103 2
163 34 75 41 125 94 161 170 22 48 26 70 26 146 0 82 -3 97 -33 157 -71 146
-227 225 -385 198z m152 -217 c72 -54 94 -155 48 -224 -31 -48 -105 -83 -156
-74 -90 15 -145 84 -138 173 5 64 28 99 88 130 52 28 116 25 158 -5z"/>
</g>
</svg>
